<svg width="200" height="71" viewBox="0 0 200 71" fill="none" xmlns="http://www.w3.org/2000/svg">
<path d="M8 0.5H73.0484V69.5H8C3.85787 69.5 0.5 66.1421 0.5 62V8C0.5 3.85786 3.85786 0.5 8 0.5Z" stroke="black" stroke-linejoin="round"/>
<path d="M72.7581 0.5H192C196.142 0.5 199.5 3.85786 199.5 8V62C199.5 66.1421 196.142 69.5 192 69.5H72.7581V0.5Z" fill="black" stroke="black" stroke-linejoin="round"/>
<path d="M78.3307 27.4319H85.8507V28.9199H79.8827V32.4399H85.2107V33.9279H79.8827V37.5119H86.0747V38.9999H78.3307V27.4319ZM91.0882 39.1919L87.4082 32.3759H89.1682L91.6642 37.6399L90.7522 37.6079L93.0402 32.3759H94.7042L91.1682 39.1919H91.0882ZM99.3342 42.2799C98.8435 42.2799 98.4115 42.2213 98.0382 42.1039C97.6649 41.9973 97.3235 41.8426 97.0142 41.6399C96.7155 41.4373 96.4275 41.2079 96.1502 40.9519L97.0142 39.9439C97.3662 40.2746 97.7235 40.5306 98.0862 40.7119C98.4489 40.8933 98.8542 40.9839 99.3022 40.9839C99.8035 40.9839 100.225 40.8986 100.566 40.7279C100.918 40.5679 101.185 40.3386 101.366 40.0399C101.548 39.7519 101.638 39.4159 101.638 39.0319L101.654 37.2399L101.782 37.5279C101.59 37.9866 101.244 38.3759 100.742 38.6959C100.241 39.0053 99.6329 39.1599 98.9182 39.1599C98.3102 39.1599 97.7502 39.0053 97.2382 38.6959C96.7369 38.3866 96.3315 37.9706 96.0222 37.4479C95.7235 36.9146 95.5742 36.3173 95.5742 35.6559C95.5742 34.9626 95.7342 34.3546 96.0542 33.8319C96.3742 33.2986 96.7955 32.8773 97.3182 32.5679C97.8409 32.2586 98.4115 32.1039 99.0302 32.1039C99.6169 32.1039 100.15 32.2266 100.63 32.4719C101.121 32.7066 101.478 33.0106 101.702 33.3839L101.622 33.6559L101.782 32.3759H103.142V39.0479C103.142 39.6453 102.988 40.1893 102.678 40.6799C102.369 41.1706 101.932 41.5599 101.366 41.8479C100.801 42.1359 100.124 42.2799 99.3342 42.2799ZM97.0622 35.6239C97.0622 36.0506 97.1635 36.4399 97.3662 36.7919C97.5689 37.1439 97.8409 37.4213 98.1822 37.6239C98.5342 37.8266 98.9235 37.9279 99.3502 37.9279C99.7449 37.9279 100.097 37.8586 100.406 37.7199C100.726 37.5706 100.993 37.3733 101.206 37.1279C101.42 36.8719 101.569 36.5786 101.654 36.2479V34.9359C101.558 34.6159 101.398 34.3386 101.174 34.1039C100.95 33.8586 100.684 33.6719 100.374 33.5439C100.065 33.4053 99.7235 33.3359 99.3502 33.3359C98.9235 33.3359 98.5342 33.4319 98.1822 33.6239C97.8409 33.8159 97.5689 34.0879 97.3662 34.4399C97.1635 34.7813 97.0622 35.1759 97.0622 35.6239ZM108.785 39.1599C108.027 39.1599 107.377 39.0106 106.833 38.7119C106.289 38.4026 105.867 37.9866 105.569 37.4639C105.281 36.9306 105.137 36.3226 105.137 35.6399C105.137 34.9893 105.302 34.3973 105.633 33.8639C105.963 33.3306 106.406 32.9039 106.961 32.5839C107.515 32.2639 108.134 32.1039 108.817 32.1039C109.691 32.1039 110.417 32.3599 110.993 32.8719C111.569 33.3839 111.958 34.0879 112.161 34.9839L106.705 36.9039L106.353 36.0239L110.833 34.3919L110.513 34.5999C110.385 34.2479 110.171 33.9439 109.873 33.6879C109.574 33.4213 109.185 33.2879 108.705 33.2879C108.299 33.2879 107.937 33.3893 107.617 33.5919C107.297 33.7839 107.046 34.0506 106.865 34.3919C106.683 34.7333 106.593 35.1226 106.593 35.5599C106.593 36.0186 106.689 36.4239 106.881 36.7759C107.073 37.1173 107.334 37.3893 107.665 37.5919C108.006 37.7839 108.39 37.8799 108.817 37.8799C109.105 37.8799 109.382 37.8266 109.649 37.7199C109.926 37.6133 110.182 37.4746 110.417 37.3039L111.105 38.4079C110.774 38.6319 110.401 38.8133 109.985 38.9519C109.579 39.0906 109.179 39.1599 108.785 39.1599ZM115.353 32.3759L115.481 33.9919L115.417 33.7359C115.631 33.2453 115.977 32.8559 116.457 32.5679C116.937 32.2693 117.492 32.1199 118.121 32.1199C118.751 32.1199 119.263 32.3066 119.657 32.6799C120.063 33.0426 120.271 33.5173 120.281 34.1039V38.9999H118.777V34.6319C118.767 34.2693 118.66 33.9759 118.457 33.7519C118.265 33.5173 117.961 33.3999 117.545 33.3999C117.161 33.3999 116.815 33.5066 116.505 33.7199C116.196 33.9333 115.951 34.2266 115.769 34.5999C115.599 34.9733 115.513 35.4053 115.513 35.8959V38.9999H114.025V32.3759H115.353ZM122.869 32.3759H124.357V38.9999H122.869V32.3759ZM122.757 29.9759C122.757 29.7413 122.848 29.5439 123.029 29.3839C123.221 29.2239 123.429 29.1439 123.653 29.1439C123.877 29.1439 124.074 29.2239 124.245 29.3839C124.426 29.5439 124.517 29.7413 124.517 29.9759C124.517 30.2213 124.426 30.4239 124.245 30.5839C124.074 30.7333 123.877 30.8079 123.653 30.8079C123.429 30.8079 123.221 30.7279 123.029 30.5679C122.848 30.4079 122.757 30.2106 122.757 29.9759ZM127.491 42.1839L131.859 32.3759H133.235L128.963 42.1839H127.491ZM129.123 39.0479L125.939 32.3759H127.619L130.291 38.2959L129.123 39.0479ZM143.244 27.4319C144.407 27.4319 145.319 27.6719 145.98 28.1519C146.652 28.6213 146.988 29.3573 146.988 30.3599C146.988 30.9679 146.85 31.4959 146.572 31.9439C146.295 32.3919 145.906 32.7439 145.404 32.9999C144.914 33.2559 144.332 33.3999 143.66 33.4319L143.436 32.6319C144.215 32.6533 144.914 32.7919 145.532 33.0479C146.151 33.3039 146.642 33.6613 147.004 34.1199C147.367 34.5786 147.548 35.1226 147.548 35.7519C147.548 36.3279 147.442 36.8239 147.228 37.2399C147.015 37.6453 146.727 37.9813 146.364 38.2479C146.002 38.5039 145.591 38.6959 145.132 38.8239C144.674 38.9413 144.199 38.9999 143.708 38.9999H140.268V27.4319H143.244ZM143.564 32.5039C144.204 32.5039 144.668 32.3279 144.956 31.9759C145.244 31.6133 145.388 31.1759 145.388 30.6639C145.388 30.0559 145.202 29.6133 144.828 29.3359C144.455 29.0586 143.954 28.9199 143.324 28.9199H141.82V32.5039H143.564ZM143.628 37.5599C144.055 37.5599 144.444 37.4959 144.796 37.3679C145.159 37.2399 145.442 37.0426 145.644 36.7759C145.858 36.5093 145.964 36.1733 145.964 35.7679C145.964 35.3199 145.842 34.9679 145.596 34.7119C145.362 34.4559 145.058 34.2746 144.684 34.1679C144.311 34.0506 143.927 33.9919 143.532 33.9919H141.82V37.5599H143.628ZM151.119 32.3759L151.263 34.2959L151.183 34.0399C151.353 33.6346 151.599 33.2933 151.919 33.0159C152.249 32.7279 152.591 32.5093 152.943 32.3599C153.305 32.1999 153.62 32.1199 153.887 32.1199L153.807 33.5919C153.305 33.5599 152.863 33.6559 152.479 33.8799C152.105 34.1039 151.807 34.4026 151.583 34.7759C151.369 35.1493 151.263 35.5493 151.263 35.9759V38.9999H149.791V32.3759H151.119ZM155.806 32.3759H157.294V38.9999H155.806V32.3759ZM155.694 29.9759C155.694 29.7413 155.785 29.5439 155.966 29.3839C156.158 29.2239 156.366 29.1439 156.59 29.1439C156.814 29.1439 157.012 29.2239 157.182 29.3839C157.364 29.5439 157.454 29.7413 157.454 29.9759C157.454 30.2213 157.364 30.4239 157.182 30.5839C157.012 30.7333 156.814 30.8079 156.59 30.8079C156.366 30.8079 156.158 30.7279 155.966 30.5679C155.785 30.4079 155.694 30.2106 155.694 29.9759ZM162.621 39.1599C162.002 39.1599 161.437 39.0266 160.925 38.7599C160.424 38.4933 160.024 38.1039 159.725 37.5919C159.437 37.0693 159.293 36.4346 159.293 35.6879C159.293 34.9519 159.448 34.3173 159.757 33.7839C160.066 33.2399 160.477 32.8239 160.989 32.5359C161.512 32.2479 162.082 32.1039 162.701 32.1039C163.32 32.1039 163.842 32.2479 164.269 32.5359C164.696 32.8133 165.021 33.1439 165.245 33.5279L165.149 33.7839L165.293 32.3759H166.669V38.9999H165.181V37.2719L165.341 37.6559C165.298 37.7626 165.202 37.9013 165.053 38.0719C164.914 38.2319 164.722 38.3973 164.477 38.5679C164.242 38.7386 163.97 38.8826 163.661 38.9999C163.352 39.1066 163.005 39.1599 162.621 39.1599ZM163.021 37.9279C163.394 37.9279 163.73 37.8586 164.029 37.7199C164.328 37.5813 164.573 37.3893 164.765 37.1439C164.968 36.8879 165.106 36.5839 165.181 36.2319V34.9359C165.096 34.6159 164.946 34.3386 164.733 34.1039C164.52 33.8586 164.264 33.6719 163.965 33.5439C163.666 33.4053 163.336 33.3359 162.973 33.3359C162.578 33.3359 162.216 33.4319 161.885 33.6239C161.554 33.8159 161.288 34.0826 161.085 34.4239C160.893 34.7653 160.797 35.1653 160.797 35.6239C160.797 36.0506 160.898 36.4399 161.101 36.7919C161.304 37.1439 161.576 37.4213 161.917 37.6239C162.258 37.8266 162.626 37.9279 163.021 37.9279ZM169.244 38.9999V26.6159H170.732V38.9999H169.244ZM172.332 34.5999L175.372 38.9999H173.628L171.34 35.4319L172.332 34.5999ZM170.268 36.8879L170.124 35.4639L174.14 32.2319L175.052 33.0159L170.268 36.8879ZM176.387 35.6239C176.387 34.9626 176.541 34.3653 176.851 33.8319C177.171 33.2986 177.608 32.8773 178.163 32.5679C178.717 32.2586 179.347 32.1039 180.051 32.1039C180.776 32.1039 181.411 32.2586 181.955 32.5679C182.499 32.8773 182.92 33.2986 183.219 33.8319C183.517 34.3653 183.667 34.9626 183.667 35.6239C183.667 36.2853 183.517 36.8879 183.219 37.4319C182.92 37.9653 182.493 38.3866 181.939 38.6959C181.395 39.0053 180.76 39.1599 180.035 39.1599C179.331 39.1599 178.701 39.0159 178.147 38.7279C177.603 38.4293 177.171 38.0186 176.851 37.4959C176.541 36.9626 176.387 36.3386 176.387 35.6239ZM177.875 35.6399C177.875 36.0666 177.971 36.4559 178.163 36.8079C178.355 37.1493 178.611 37.4213 178.931 37.6239C179.261 37.8266 179.624 37.9279 180.019 37.9279C180.435 37.9279 180.803 37.8266 181.123 37.6239C181.453 37.4213 181.709 37.1493 181.891 36.8079C182.072 36.4559 182.163 36.0666 182.163 35.6399C182.163 35.2133 182.072 34.8293 181.891 34.4879C181.709 34.1359 181.453 33.8586 181.123 33.6559C180.803 33.4426 180.435 33.3359 180.019 33.3359C179.613 33.3359 179.245 33.4426 178.915 33.6559C178.595 33.8693 178.339 34.1519 178.147 34.5039C177.965 34.8453 177.875 35.2239 177.875 35.6399Z" fill="white"/>
<g filter="url(#filter0_d_5_16)">
<line x1="25.8065" y1="33" x2="47.742" y2="33" stroke="black" stroke-width="8" stroke-linejoin="round"/>
</g>
<g filter="url(#filter1_d_5_16)">
<line x1="26" y1="9.5" x2="58" y2="9.5" stroke="black" stroke-width="7" stroke-linejoin="round"/>
</g>
<g filter="url(#filter2_d_5_16)">
<line x1="25.5555" y1="58.9999" x2="58.4588" y2="58.9999" stroke="black" stroke-width="8" stroke-linejoin="round"/>
</g>
<g style="mix-blend-mode:darken" filter="url(#filter3_d_5_16)">
<path d="M18 6L18 63" stroke="black" stroke-width="8" stroke-linejoin="round"/>
</g>
<defs>
<filter id="filter0_d_5_16" x="21.8065" y="29" width="29.9355" height="16" filterUnits="userSpaceOnUse" color-interpolation-filters="sRGB">
<feFlood flood-opacity="0" result="BackgroundImageFix"/>
<feColorMatrix in="SourceAlpha" type="matrix" values="0 0 0 0 0 0 0 0 0 0 0 0 0 0 0 0 0 0 127 0" result="hardAlpha"/>
<feOffset dy="4"/>
<feGaussianBlur stdDeviation="2"/>
<feComposite in2="hardAlpha" operator="out"/>
<feColorMatrix type="matrix" values="0 0 0 0 0 0 0 0 0 0 0 0 0 0 0 0 0 0 0.25 0"/>
<feBlend mode="normal" in2="BackgroundImageFix" result="effect1_dropShadow_5_16"/>
<feBlend mode="normal" in="SourceGraphic" in2="effect1_dropShadow_5_16" result="shape"/>
</filter>
<filter id="filter1_d_5_16" x="22" y="6" width="40" height="15" filterUnits="userSpaceOnUse" color-interpolation-filters="sRGB">
<feFlood flood-opacity="0" result="BackgroundImageFix"/>
<feColorMatrix in="SourceAlpha" type="matrix" values="0 0 0 0 0 0 0 0 0 0 0 0 0 0 0 0 0 0 127 0" result="hardAlpha"/>
<feOffset dy="4"/>
<feGaussianBlur stdDeviation="2"/>
<feComposite in2="hardAlpha" operator="out"/>
<feColorMatrix type="matrix" values="0 0 0 0 0 0 0 0 0 0 0 0 0 0 0 0 0 0 0.25 0"/>
<feBlend mode="normal" in2="BackgroundImageFix" result="effect1_dropShadow_5_16"/>
<feBlend mode="normal" in="SourceGraphic" in2="effect1_dropShadow_5_16" result="shape"/>
</filter>
<filter id="filter2_d_5_16" x="21.5555" y="54.9999" width="40.9032" height="16" filterUnits="userSpaceOnUse" color-interpolation-filters="sRGB">
<feFlood flood-opacity="0" result="BackgroundImageFix"/>
<feColorMatrix in="SourceAlpha" type="matrix" values="0 0 0 0 0 0 0 0 0 0 0 0 0 0 0 0 0 0 127 0" result="hardAlpha"/>
<feOffset dy="4"/>
<feGaussianBlur stdDeviation="2"/>
<feComposite in2="hardAlpha" operator="out"/>
<feColorMatrix type="matrix" values="0 0 0 0 0 0 0 0 0 0 0 0 0 0 0 0 0 0 0.25 0"/>
<feBlend mode="normal" in2="BackgroundImageFix" result="effect1_dropShadow_5_16"/>
<feBlend mode="normal" in="SourceGraphic" in2="effect1_dropShadow_5_16" result="shape"/>
</filter>
<filter id="filter3_d_5_16" x="10" y="6" width="16" height="65" filterUnits="userSpaceOnUse" color-interpolation-filters="sRGB">
<feFlood flood-opacity="0" result="BackgroundImageFix"/>
<feColorMatrix in="SourceAlpha" type="matrix" values="0 0 0 0 0 0 0 0 0 0 0 0 0 0 0 0 0 0 127 0" result="hardAlpha"/>
<feOffset dy="4"/>
<feGaussianBlur stdDeviation="2"/>
<feComposite in2="hardAlpha" operator="out"/>
<feColorMatrix type="matrix" values="0 0 0 0 0 0 0 0 0 0 0 0 0 0 0 0 0 0 0.25 0"/>
<feBlend mode="normal" in2="BackgroundImageFix" result="effect1_dropShadow_5_16"/>
<feBlend mode="normal" in="SourceGraphic" in2="effect1_dropShadow_5_16" result="shape"/>
</filter>
</defs>
</svg>
